<svg width="25" height="23" viewBox="0 0 25 23" fill="none" xmlns="http://www.w3.org/2000/svg">
<path d="M23.818 6.72359C23.1663 5.14003 22.2074 3.77873 20.8854 2.67673C19.4889 1.5099 17.8782 0.769058 16.1093 0.361594C15.0387 0.111559 13.9494 0.00969212 12.8508 0.000431575C11.445 -0.00882897 10.0578 0.13008 8.69857 0.500502C7.09725 0.945008 5.64488 1.67659 4.37872 2.74155C2.67499 4.17694 1.60434 6.01052 1.02712 8.12193C0.580235 9.73326 0.477826 11.3724 0.701266 13.0208C0.952637 14.9655 1.61365 16.762 2.78671 18.3548C3.91322 19.8736 5.35627 20.9941 7.09724 21.7442C8.3541 22.2906 9.6575 22.5869 11.0168 22.7258C12.3015 22.8647 13.577 22.8369 14.8432 22.6795C16.0907 22.5221 17.3103 22.198 18.4648 21.6608C21.1461 20.4199 22.9801 18.4011 24.0042 15.6507C24.5908 14.0672 24.8235 12.4188 24.7304 10.7334C24.6373 9.35358 24.3487 8.0108 23.818 6.72359ZM20.3454 17.6695C19.9264 18.9382 19.2561 20.0402 18.1575 20.8459C17.5338 21.2997 16.8355 21.5868 16.0814 21.7349C14.1449 22.0961 12.3574 21.7164 10.6816 20.7255C9.36889 19.9384 8.30755 18.8919 7.43241 17.651C5.99866 15.6137 5.13283 13.3356 4.7325 10.8908C4.55561 9.84439 4.48113 8.78869 4.55561 7.73299C4.65802 6.27908 4.96525 4.88074 5.71936 3.60278C6.56657 2.1674 7.82343 1.29691 9.46199 1.00983C11.2495 0.694972 12.9346 1.04687 14.508 1.94515C15.9697 2.77859 17.1148 3.93616 18.0458 5.30672C19.0792 6.81619 19.8054 8.47383 20.2802 10.2333C20.634 11.5391 20.8481 12.8633 20.8295 14.1876C20.8574 15.4007 20.7085 16.5583 20.3454 17.6695Z" fill="#3B6679"/>
</svg>
