<svg width="108" height="70" viewBox="0 0 108 70" fill="none" xmlns="http://www.w3.org/2000/svg">
<path d="M48.0967 65.7077H47.6523V65.0497H48.0967V64.7943C48.0967 64.4113 48.1954 64.1264 48.383 63.9398C48.5706 63.7532 48.8274 63.6648 49.173 63.6648C49.3112 63.6648 49.4396 63.6746 49.5383 63.6943C49.6371 63.7139 49.7358 63.7335 49.8247 63.763V64.4309C49.7457 64.4014 49.6667 64.3818 49.5976 64.372C49.5284 64.3523 49.4396 64.3523 49.3606 64.3523C49.0545 64.3523 48.8965 64.5291 48.8965 64.8827V65.0791H49.8247V65.7274H48.9162V68.5168H48.1164V65.7077H48.0967Z" fill="#3B6679"/>
<path d="M51.8587 68.5659C51.4638 68.5659 51.1576 68.4481 50.9404 68.2025C50.7232 67.9668 50.6146 67.6329 50.6146 67.2302V65.0203H51.4144V66.9846C51.4144 67.2596 51.4835 67.4659 51.6119 67.6034C51.7402 67.7507 51.9278 67.8195 52.1648 67.8195C52.4018 67.8195 52.5894 67.7409 52.7375 67.5936C52.8856 67.4463 52.9548 67.24 52.9548 66.965V65.0203H53.7546V68.4874H52.9548V67.9472C52.8363 68.1141 52.698 68.2615 52.5203 68.3793C52.3524 68.507 52.1253 68.5659 51.8587 68.5659Z" fill="#3B6679"/>
<path d="M56.2134 68.5563C55.9665 68.5563 55.7098 68.517 55.4531 68.4286C55.1963 68.3402 54.9593 68.2126 54.7322 68.0456L55.0877 67.5054C55.2852 67.6429 55.4728 67.7509 55.6703 67.8197C55.8678 67.8884 56.0554 67.9277 56.2331 67.9277C56.401 67.9277 56.5392 67.8983 56.6281 67.8295C56.7268 67.7608 56.7663 67.6724 56.7663 67.5545V67.5447C56.7663 67.4759 56.7466 67.4268 56.7071 67.3777C56.6676 67.3286 56.6083 67.2893 56.5392 67.25C56.4701 67.2107 56.3812 67.1813 56.2924 67.1518C56.1936 67.1223 56.0949 67.0929 55.9961 67.0634C55.8678 67.0241 55.7394 66.9848 55.611 66.9357C55.4827 66.8866 55.3642 66.8277 55.2654 66.7491C55.1568 66.6705 55.0778 66.5723 55.0087 66.4643C54.9396 66.3464 54.91 66.2089 54.91 66.0419V66.0321C54.91 65.875 54.9396 65.7277 55.0087 65.5901C55.068 65.4625 55.1568 65.3446 55.2753 65.2562C55.3839 65.1678 55.5222 65.0892 55.6703 65.05C55.8184 65.0008 55.9863 64.9812 56.1541 64.9812C56.3714 64.9812 56.5985 65.0205 56.8256 65.0892C57.0527 65.158 57.2502 65.2562 57.4378 65.3741L57.1218 65.9437C56.9539 65.8455 56.7861 65.7669 56.6083 65.708C56.4405 65.6491 56.2825 65.6196 56.1344 65.6196C55.9764 65.6196 55.8579 65.6491 55.7789 65.7178C55.69 65.7768 55.6505 65.8652 55.6505 65.9634V65.9732C55.6505 66.0419 55.6703 66.0911 55.7197 66.1402C55.7592 66.1893 55.8184 66.2286 55.8974 66.2679C55.9665 66.3071 56.0554 66.3366 56.1443 66.3759C56.243 66.4054 56.3319 66.4446 56.4405 66.4741C56.5688 66.5134 56.6972 66.5625 56.8256 66.6116C56.9539 66.6607 57.0724 66.7295 57.1712 66.808C57.2699 66.8866 57.3588 66.975 57.4279 67.0831C57.497 67.1911 57.5266 67.3286 57.5266 67.4857V67.4956C57.5266 67.6822 57.497 67.8393 57.4279 67.9768C57.3588 68.1143 57.2699 68.2224 57.1514 68.3108C57.0329 68.3992 56.8947 68.4679 56.7367 68.517C56.559 68.5367 56.3911 68.5563 56.2134 68.5563Z" fill="#3B6679"/>
<path d="M58.6227 65.0203H59.4225V68.4874H58.6227V65.0203ZM58.5931 63.7336H59.4522V64.4899H58.5931V63.7336Z" fill="#3B6679"/>
<path d="M62.4045 67.8784C62.5723 67.8784 62.7106 67.8489 62.839 67.79C62.9673 67.731 63.0759 67.6525 63.1747 67.5542C63.2635 67.456 63.3425 67.3382 63.382 67.2105C63.4314 67.073 63.4512 66.9355 63.4512 66.7881V66.7783C63.4512 66.6212 63.4215 66.4837 63.3722 66.3462C63.3228 66.2087 63.2438 66.0908 63.1549 65.9926C63.0562 65.8944 62.9476 65.8158 62.8192 65.7569C62.6908 65.6979 62.5427 65.6685 62.3847 65.6685C62.2267 65.6685 62.0786 65.6979 61.9503 65.7569C61.8219 65.8158 61.7133 65.8944 61.6145 65.9926C61.5257 66.0908 61.4467 66.2087 61.4072 66.3462C61.3578 66.4837 61.3381 66.6212 61.3381 66.7685V66.7783C61.3381 66.9355 61.3677 67.073 61.4171 67.2105C61.4664 67.348 61.5454 67.4659 61.6343 67.5641C61.733 67.6623 61.8417 67.7409 61.97 67.7998C62.1083 67.8489 62.2465 67.8784 62.4045 67.8784ZM62.3847 68.5659C62.1181 68.5659 61.8713 68.5168 61.6442 68.4284C61.4171 68.3302 61.2196 68.2025 61.0517 68.0453C60.8839 67.8784 60.7555 67.6917 60.6666 67.4757C60.5778 67.2596 60.5284 67.0239 60.5284 66.7783V66.7685C60.5284 66.523 60.5778 66.2872 60.6666 66.0613C60.7654 65.8453 60.8937 65.6488 61.0517 65.4818C61.2196 65.3149 61.4171 65.1872 61.6442 65.089C61.8713 64.9908 62.1181 64.9417 62.3847 64.9417C62.6513 64.9417 62.8982 64.9908 63.1253 65.0792C63.3524 65.1774 63.5499 65.3051 63.7178 65.4622C63.8856 65.6292 64.014 65.8158 64.1029 66.0319C64.1917 66.248 64.2411 66.4837 64.2411 66.7292V66.739C64.2411 66.9846 64.1917 67.2203 64.1029 67.4364C64.0041 67.6525 63.8757 67.8489 63.7178 68.0159C63.5499 68.1828 63.3524 68.3105 63.1253 68.4087C62.9081 68.5266 62.6513 68.5659 62.3847 68.5659Z" fill="#3B6679"/>
<path d="M65.3272 65.0202H66.127V65.5505C66.1863 65.472 66.2455 65.3934 66.3146 65.3247C66.3837 65.2461 66.4627 65.1871 66.5516 65.1282C66.6405 65.0693 66.7392 65.03 66.8478 65.0005C66.9564 64.9711 67.0749 64.9514 67.2132 64.9514C67.6081 64.9514 67.9143 65.0693 68.1315 65.3148C68.3487 65.5604 68.4573 65.8747 68.4573 66.2774V68.4971H67.6575V66.5229C67.6575 66.2479 67.5884 66.0416 67.46 65.8943C67.3317 65.747 67.1441 65.6782 66.9071 65.6782C66.6701 65.6782 66.4825 65.7568 66.3344 65.9041C66.1863 66.0515 66.1171 66.2675 66.1171 66.5426V68.4971H65.3173V65.0202H65.3272Z" fill="#3B6679"/>
<path d="M39.1506 66.9945C39.1604 67.0534 39.1703 67.1516 39.1901 67.2499C39.2098 67.3186 39.2394 67.3972 39.2691 67.4561C39.4567 67.8293 39.7529 68.0552 40.1874 68.0651C40.6218 68.0749 40.9477 67.8784 41.1452 67.4954C41.3723 67.0534 41.3525 66.6114 41.0859 66.1891C40.7206 65.6194 39.9109 65.5605 39.4567 66.0614C39.2296 66.3168 39.1407 66.6213 39.1506 66.9945ZM38.5581 63.7336H39.1407V65.6882C39.1506 65.698 39.1604 65.7078 39.1802 65.7177C39.1901 65.698 39.1901 65.6685 39.2098 65.6587C39.5455 65.2855 39.9701 65.1382 40.454 65.1971C41.2439 65.2757 41.7475 65.9141 41.8561 66.5721C41.9647 67.2204 41.7969 67.7901 41.3032 68.2419C40.7107 68.7821 39.7233 68.7722 39.1901 68.1338C39.1802 68.124 39.1703 68.1142 39.1506 68.0945V68.5562H38.5581V63.7336Z" fill="#3B6679"/>
<path d="M42.3105 65.2463C42.508 65.2463 42.7055 65.2463 42.8931 65.2463C42.9128 65.2463 42.9424 65.2954 42.9622 65.3249C43.13 65.7374 43.288 66.1598 43.4559 66.5821C43.604 66.9652 43.7521 67.3384 43.9101 67.7214C43.92 67.7411 43.92 67.7509 43.9397 67.7902C43.9694 67.7312 43.9891 67.6821 44.0089 67.633C44.315 66.8669 44.6211 66.091 44.9173 65.3249C44.937 65.2758 44.9568 65.2463 45.0259 65.2463C45.1839 65.2463 45.332 65.2463 45.49 65.2463C45.5097 65.2463 45.5394 65.2463 45.569 65.2562C45.5196 65.374 45.4801 65.4821 45.4406 65.5901C44.9963 66.7196 44.5421 67.8491 44.0879 68.9786C43.999 69.1947 43.8904 69.401 43.762 69.5876C43.5843 69.8528 43.3275 70.0001 43.0017 70.0001C42.8536 70.0001 42.6956 69.9706 42.5475 69.951C42.5277 69.951 42.4882 69.9215 42.4882 69.9019C42.4882 69.7349 42.4882 69.5679 42.4882 69.3911C42.5968 69.4108 42.6956 69.4304 42.8042 69.4402C43.0906 69.4697 43.2979 69.3518 43.4263 69.0965C43.5151 68.9295 43.5843 68.7527 43.6534 68.5759C43.6633 68.5465 43.6534 68.5072 43.6435 68.4777C43.288 67.6036 42.9326 66.7294 42.5771 65.8553C42.4981 65.6785 42.429 65.4919 42.35 65.3151C42.3204 65.3053 42.3204 65.2758 42.3105 65.2463Z" fill="#3B6679"/>
<path d="M35.2404 5.91272H36.0797V0.0785743H35.2404V2.36705H31.9819V0.0785743H31.1426V5.9029H31.9819V3.15279H35.2404V5.91272ZM38.6668 2.99565C38.6668 4.69481 39.9405 5.99129 41.5994 5.99129C43.2583 5.99129 44.5321 4.69481 44.5321 2.99565C44.5321 1.29648 43.2583 0 41.5994 0C39.9405 0 38.6668 1.29648 38.6668 2.99565ZM39.5061 2.99565C39.5061 1.73846 40.4046 0.785743 41.5994 0.785743C42.7942 0.785743 43.6928 1.73846 43.6928 2.99565C43.6928 4.26266 42.7942 5.20555 41.5994 5.20555C40.4046 5.20555 39.5061 4.26266 39.5061 2.99565ZM49.9629 0.874139H51.5527V5.91272H52.392V0.874139H53.9817V0.0785743H49.9629V0.874139ZM57.9117 3.16262L59.9952 5.91272H61.0122L58.909 3.13315C59.2052 3.08404 59.4126 2.976 59.5903 2.82868C59.9458 2.54384 60.1729 2.11168 60.1729 1.63042C60.1729 1.14915 59.9458 0.716991 59.5903 0.432159C59.3237 0.216079 58.988 0.0883961 58.4548 0.0883961H56.4009V5.91272H57.2402V3.16262H57.9117V3.16262ZM57.2402 2.37687V0.874139H58.4153C58.7905 0.874139 58.988 0.952714 59.1163 1.09022C59.2546 1.22772 59.3336 1.41434 59.3336 1.6206C59.3336 1.82685 59.2546 2.02329 59.1163 2.15097C58.9781 2.28848 58.7905 2.36705 58.4153 2.36705H57.2402V2.37687ZM67.2922 5.91272H68.1612L65.7321 0.0883961H65.1495L62.7204 5.91272H63.5894L64.2016 4.40998H66.6701L67.2922 5.91272ZM65.4457 1.45362L66.3443 3.61442H64.5373L65.4457 1.45362ZM75.3595 1.99382V5.91272H76.1988V0.0785743H75.6162L73.355 3.63406L71.0938 0.0785743H70.5112V5.9029H71.3505V1.99382L73.0687 4.66535H73.6512L75.3595 1.99382Z" fill="#3B6679"/>
<path d="M60.2617 31.8322C59.5705 30.1527 58.5534 28.7089 57.1513 27.5401C55.6701 26.3026 53.9619 25.5168 52.0858 25.0847C50.9503 24.8195 49.795 24.7115 48.6298 24.7016C47.1388 24.6918 45.6675 24.8391 44.2259 25.232C42.5275 25.7035 40.9871 26.4794 39.6442 27.6089C37.8372 29.1313 36.7017 31.076 36.0895 33.3153C35.6155 35.0243 35.5069 36.7628 35.7439 38.5111C36.0105 40.5736 36.7116 42.4791 37.9557 44.1684C39.1505 45.7792 40.681 46.9676 42.5275 47.7632C43.8605 48.3427 45.2429 48.657 46.6846 48.8043C48.0472 48.9516 49.4 48.9222 50.7429 48.7552C52.066 48.5882 53.3596 48.2445 54.584 47.6748C57.4278 46.3587 59.373 44.2175 60.4592 41.3004C61.0812 39.6209 61.3281 37.8726 61.2294 36.0851C61.1306 34.6216 60.8245 33.1975 60.2617 31.8322ZM56.5786 43.4416C56.1342 44.7872 55.4233 45.956 54.2581 46.8105C53.5966 47.2917 52.856 47.5962 52.0562 47.7534C50.0023 48.1364 48.1065 47.7337 46.3291 46.6828C44.9368 45.8479 43.8112 44.7381 42.883 43.422C41.3623 41.2612 40.444 38.845 40.0194 36.2521C39.8318 35.1422 39.7528 34.0225 39.8318 32.9028C39.9405 31.3608 40.2663 29.8777 41.0661 28.5223C41.9647 26.9999 43.2977 26.0767 45.0356 25.7722C46.9314 25.4383 48.7187 25.8115 50.3874 26.7642C51.9377 27.6482 53.1522 28.8759 54.1396 30.3295C55.2357 31.9305 56.0059 33.6886 56.5095 35.5547C56.8847 36.9396 57.1118 38.3441 57.092 39.7486C57.1217 41.0353 56.9637 42.263 56.5786 43.4416Z" fill="#3B6679"/>
<path d="M107.253 34.7693C107.184 33.3451 106.957 31.9504 106.513 30.595C105.624 27.9137 103.827 26.1458 101.121 25.3011C99.5711 24.8198 97.9715 24.6627 96.3521 24.6921C94.476 24.7216 92.6493 25.0654 90.8719 25.6645C89.6672 26.0672 88.512 26.5878 87.5443 27.4324C86.8333 28.0512 86.3692 28.7977 86.3001 29.7602C86.2014 31.1352 87.2382 32.1763 88.6206 32.0879C89.5882 32.029 90.2202 31.3513 90.2103 30.4772C90.2103 30.2709 90.2103 30.0647 90.2103 29.8584C90.2103 29.3182 90.2103 28.7878 90.3288 28.2575C90.4671 27.6681 90.7435 27.1771 91.1978 26.7744C91.8297 26.2145 92.5999 25.9493 93.3997 25.7627C94.555 25.4975 95.7399 25.3993 96.9347 25.4386C98.0801 25.4779 99.1268 25.7824 100.055 26.4797C100.796 27.0396 101.319 27.7664 101.734 28.5816C102.237 29.5736 102.524 30.6245 102.731 31.7049C102.79 32.0388 102.869 32.3826 102.859 32.7264C102.83 33.3942 102.445 33.8952 101.951 34.3273C101.447 34.7595 100.875 35.064 100.272 35.3291C99.2453 35.7809 98.1789 36.0854 97.1026 36.3702C95.6115 36.7631 94.1205 37.1265 92.6295 37.5194C91.1978 37.8926 89.7759 38.3248 88.4231 38.9436C87.5147 39.3561 86.6655 39.8472 85.9446 40.5347C85.3522 41.1044 84.9375 41.7722 84.7301 42.5678C84.582 43.1276 84.582 43.6973 84.6314 44.267C84.7005 45.0036 84.898 45.7009 85.2929 46.3394C85.915 47.3412 86.8333 47.9501 87.9294 48.343C88.8477 48.6671 89.8055 48.8145 90.7732 48.8341C91.3557 48.8439 91.9482 48.8243 92.5308 48.7457C93.4886 48.6082 94.4069 48.3037 95.3054 47.9403C96.3225 47.5376 97.3 47.0465 98.2381 46.4965C99.6106 45.7009 100.914 44.7973 102.079 43.7169C102.148 43.658 102.198 43.5794 102.257 43.5107C102.119 43.5205 102.03 43.5696 101.951 43.6286C101.092 44.1786 100.252 44.7679 99.3736 45.2884C98.0702 46.0644 96.6977 46.7028 95.2265 47.1349C94.1897 47.4394 93.143 47.6162 92.0568 47.4689C91.178 47.351 90.4276 46.9974 89.8647 46.2903C89.3908 45.701 89.1834 45.0036 89.1143 44.2571C88.9365 42.2731 89.5981 40.6722 91.257 39.4936C92.1753 38.8355 93.1924 38.3935 94.2588 38.04C95.73 37.5587 97.2309 37.1364 98.7121 36.6747C99.581 36.3997 100.44 36.1051 101.23 35.6631C101.882 35.2997 102.464 34.8675 102.859 34.2193C102.889 34.1702 102.909 34.1112 102.928 34.0621C102.968 34.0818 102.997 34.1014 103.037 34.1211C103.225 36.4488 103.185 38.7864 103.195 41.124C103.195 43.4616 103.195 45.809 103.195 48.1368C103.501 48.2251 107.006 48.235 107.352 48.1368V47.7832C107.352 46.4376 107.362 45.0822 107.352 43.7366C107.303 40.7606 107.401 37.7649 107.253 34.7693Z" fill="#3B6679"/>
<path d="M71.1431 24.1123C69.9187 24.7704 68.7042 25.4481 67.4798 26.0963C67.2526 26.2142 67.1835 26.3615 67.1835 26.6071C67.1934 33.6886 67.1835 40.7799 67.1835 47.8614V48.1561C67.4798 48.2445 70.9752 48.2543 71.3208 48.1757C71.39 47.6748 71.3603 24.3088 71.2912 24.0632C71.2418 24.0731 71.1925 24.0829 71.1431 24.1123Z" fill="#3B6679"/>
<path d="M1.18402 26.1065C0.956916 26.2244 0.917419 26.3717 0.917419 26.6074C0.917419 33.7086 0.917419 40.7999 0.917419 47.9011C0.917419 47.9895 0.927294 48.0779 0.937168 48.1564C1.24327 48.2448 4.7585 48.2448 5.06461 48.1564V24.0439C4.96586 24.0832 4.88687 24.1127 4.81775 24.1422C3.61309 24.8002 2.39856 25.4681 1.18402 26.1065Z" fill="#3B6679"/>
<path d="M3.48477 15.705C2.49734 15.5184 1.58891 15.7148 0.868093 16.4122C-0.0304641 17.2667 -0.139081 18.3471 0.127524 19.4864C0.255889 20.0364 0.561991 20.4882 1.01621 20.832C1.97401 21.5391 3.02068 21.6668 4.10685 21.1954C5.24239 20.7043 5.72623 19.7712 5.7361 18.573C5.75585 17.2274 4.98566 15.9997 3.48477 15.705Z" fill="#3B6679"/>
<path d="M81.7778 24.3974C81.1656 24.1814 80.5238 24.093 79.8819 24.1028C78.6081 24.1126 77.443 24.5153 76.3568 25.1537C74.9744 25.9689 73.8389 27.069 72.8712 28.3262C72.6342 28.6306 72.417 28.9449 72.1899 29.2592C72.2195 29.2887 72.259 29.3083 72.2985 29.3378C72.338 29.2789 72.3676 29.2101 72.4071 29.1708C72.8613 28.7288 73.2958 28.277 73.7698 27.8645C74.4511 27.2752 75.2015 26.7841 76.0705 26.5189C76.6629 26.3323 77.2356 26.3814 77.7293 26.7841C78.0453 27.0395 78.3317 27.3047 78.6378 27.5699C79.1611 28.0315 79.7239 28.4047 80.4349 28.5226C81.4519 28.6797 82.3505 28.2672 82.8442 27.3734C83.4465 26.2439 83.0812 24.8591 81.7778 24.3974Z" fill="#3B6679"/>
<path d="M23.727 34.9262C24.8033 33.7181 25.8697 32.51 26.946 31.3019C28.6938 29.3376 30.4415 27.383 32.1794 25.4187C32.2287 25.3696 32.2485 25.291 32.3077 25.1928H31.5375H30.7772H30.0564H29.3356C29.0788 25.1928 28.832 25.183 28.5753 25.1928C28.3482 25.2026 28.1112 25.124 27.8643 25.2321C27.9137 25.2812 27.9236 25.3106 27.9532 25.3303C28.4864 25.6446 28.674 26.1357 28.6641 26.725C28.6543 27.2357 28.4963 27.717 28.2889 28.1786C27.9532 28.9447 27.499 29.6519 26.9559 30.2903C26.1363 31.243 25.297 32.1859 24.4577 33.1386C24.4577 33.1386 23.9936 33.6493 23.9936 33.6592C23.9936 33.6592 23.3913 34.3172 23.3913 34.327L20.2908 37.745C20.2611 37.7941 20.2118 37.8531 20.1328 37.9415C19.2342 38.9335 18.3258 39.9255 17.4272 40.9175C15.3043 43.2649 13.1813 45.6123 11.0583 47.9597C11.009 48.0186 10.9596 48.0775 10.9102 48.1463C11.1669 48.2445 15.2648 48.2543 15.6104 48.1561C15.5314 48.0775 15.4622 47.999 15.3931 47.9302C14.85 47.3998 14.6328 46.7614 14.8402 46.0248C14.9093 45.7596 14.9982 45.4944 15.1068 45.2489C15.5314 44.2962 16.1337 43.4613 16.815 42.6854C18.0691 41.2318 19.3527 39.788 20.6265 38.3442C20.6561 38.3147 20.6956 38.295 20.7548 38.2656C20.8832 38.4325 20.9918 38.5897 21.1103 38.7468C22.4433 40.6817 23.8159 42.5872 25.1686 44.5024C25.4056 44.8364 25.6327 45.1605 25.8598 45.4944C26.2054 45.9953 26.5708 46.4078 26.4523 47.0659C26.3536 47.5668 26.008 47.9008 25.6624 48.2347C25.8993 48.2347 32.683 48.2445 32.8014 48.2249C29.7108 43.864 26.6103 39.4835 23.5394 35.1521C23.6184 35.0735 23.6678 34.9949 23.727 34.9262Z" fill="#3B6679"/>
<path d="M14.3563 29.0725C15.8276 31.1645 17.289 33.2566 18.7602 35.3486L21.5546 32.294C20.9128 31.3904 20.271 30.477 19.6292 29.5636C19.2342 29.0234 18.8491 28.4734 18.464 27.9233C18.2764 27.6483 18.0789 27.3733 17.8913 27.0885C17.7234 26.8331 17.5062 26.6072 17.4864 26.2929C17.4766 26.0768 17.5556 25.8608 17.6839 25.6742C17.8024 25.4974 17.9802 25.3599 18.1085 25.1929C17.8123 25.1241 17.447 25.1732 17.1409 25.1732C16.8249 25.1732 16.499 25.1732 16.183 25.1732C14.771 25.1929 13.3491 25.1831 11.9371 25.1831C11.8581 25.1831 11.7495 25.1831 11.6113 25.1831C11.7001 25.3206 11.789 25.4384 11.8482 25.5268C12.6974 26.7153 13.5269 27.8939 14.3563 29.0725Z" fill="#3B6679"/>
</svg>
